<svg xmlns="http://www.w3.org/2000/svg" xmlns:xlink="http://www.w3.org/1999/xlink" width="150" zoomAndPan="magnify" viewBox="0 0 112.5 32.249999" height="43" preserveAspectRatio="xMidYMid meet" version="1.0"><defs><clipPath id="64415f24c4"><path d="M 1.035156 0 L 110.976562 0 L 110.976562 31.515625 L 1.035156 31.515625 Z M 1.035156 0 " clip-rule="nonzero"/></clipPath></defs><g clip-path="url(#64415f24c4)"><path fill="#000000" d="M 22.1875 12.261719 C 16.871094 12.261719 12.566406 16.601562 12.566406 21.960938 C 12.566406 27.320312 16.871094 31.65625 22.1875 31.65625 C 27.507812 31.65625 31.8125 27.320312 31.8125 21.960938 C 31.8125 16.601562 27.507812 12.261719 22.1875 12.261719 Z M 40.457031 4.519531 C 40.984375 5.667969 41.40625 6.949219 41.730469 8.339844 C 42.464844 10.664062 41.378906 11.152344 38.871094 10.203125 C 37.023438 9.089844 35.175781 7.972656 33.328125 6.859375 C 32.386719 6.191406 31.9375 5.53125 32.089844 4.878906 C 32.394531 3.597656 34.851562 2.929688 36.871094 2.53125 C 39.433594 2.015625 39.253906 1.90625 40.457031 4.519531 Z M 89.953125 17.449219 C 87.484375 17.449219 85.476562 19.464844 85.476562 21.960938 C 85.476562 24.445312 87.476562 26.46875 89.953125 26.46875 C 92.417969 26.46875 94.425781 24.453125 94.425781 21.960938 C 94.425781 19.464844 92.425781 17.449219 89.953125 17.449219 Z M 22.1875 17.449219 C 19.722656 17.449219 17.714844 19.464844 17.714844 21.960938 C 17.714844 24.445312 19.714844 26.46875 22.1875 26.46875 C 24.65625 26.46875 26.664062 24.453125 26.664062 21.960938 C 26.664062 19.464844 24.664062 17.449219 22.1875 17.449219 Z M 69.972656 11.296875 C 67.488281 8.613281 64.617188 6.867188 61.300781 5.1875 C 54.035156 1.5 49.585938 1.953125 41.875 1.953125 L 44.464844 8.730469 C 45.550781 10.175781 46.78125 11.195312 48.644531 11.296875 Z M 89.953125 12.261719 C 84.632812 12.261719 80.328125 16.601562 80.328125 21.960938 C 80.328125 27.320312 84.632812 31.65625 89.953125 31.65625 C 95.269531 31.65625 99.574219 27.320312 99.574219 21.960938 C 99.574219 16.601562 95.269531 12.261719 89.953125 12.261719 Z M 74.742188 9.308594 C 71.585938 7.328125 68.152344 5.558594 64.347656 4.046875 C 52.769531 -0.550781 43.917969 -1.375 31.777344 2.332031 C 28.117188 3.730469 24.457031 5.132812 20.796875 6 C 17.183594 6.867188 1.535156 7.699219 1.148438 10.347656 L 5.015625 15 C 3.605469 16.230469 2.457031 17.738281 2.039062 20.097656 C 2.152344 21.554688 2.546875 22.773438 3.230469 23.75 C 4.386719 25.421875 7.777344 27.148438 9.605469 26.164062 C 10.1875 25.847656 10.519531 25.214844 10.511719 24.136719 C 10.457031 2.539062 36.332031 4.996094 34.386719 26.6875 L 79.53125 26.6875 C 71.171875 4.960938 106.832031 4.878906 100.5 25.9375 C 102.722656 28.359375 107.96875 24.707031 111.351562 16.945312 C 110.425781 16.023438 109.414062 15.144531 108.285156 14.332031 C 108.335938 14.289062 108.230469 14.503906 108.417969 14.179688 C 108.605469 13.855469 107.960938 12.488281 106.632812 11.703125 C 99.675781 7.589844 82.894531 7.699219 74.742188 9.308594 Z M 74.742188 9.308594 " fill-opacity="1" fill-rule="evenodd"/></g></svg>