<svg xmlns="http://www.w3.org/2000/svg" xmlns:xlink="http://www.w3.org/1999/xlink" width="50" zoomAndPan="magnify" viewBox="0 0 37.5 37.499999" height="50" preserveAspectRatio="xMidYMid meet" version="1.0"><defs><clipPath id="1a3c9b61c8"><path d="M 8 0 L 33 0 L 33 37.007812 L 8 37.007812 Z M 8 0 " clip-rule="nonzero"/></clipPath><clipPath id="ec927a639e"><path d="M -5.25 8.601562 L 27.867188 -5.523438 L 42.578125 28.972656 L 9.460938 43.09375 Z M -5.25 8.601562 " clip-rule="nonzero"/></clipPath><clipPath id="6c9fa14276"><path d="M 28.039062 -5.59375 L -5.078125 8.527344 L 9.632812 43.023438 L 42.75 28.898438 Z M 28.039062 -5.59375 " clip-rule="nonzero"/></clipPath><clipPath id="2a7f2931d9"><path d="M 28.039062 -5.59375 L -5.078125 8.527344 L 9.632812 43.023438 L 42.75 28.898438 Z M 28.039062 -5.59375 " clip-rule="nonzero"/></clipPath></defs><g clip-path="url(#1a3c9b61c8)"><g clip-path="url(#ec927a639e)"><g clip-path="url(#6c9fa14276)"><g clip-path="url(#2a7f2931d9)"><path fill="#8c3738" d="M 10.53125 42.351562 C 10.53125 42.179688 10.425781 37.941406 10.292969 32.933594 L 10.050781 23.828125 L 10.5625 23.132812 C 11.480469 21.882812 12.785156 20.929688 13.921875 20.675781 C 15.636719 20.292969 17.484375 20.875 21.171875 22.964844 C 23.867188 24.488281 25.210938 25.023438 26.554688 25.101562 C 27.582031 25.160156 27.609375 25.152344 28.871094 24.609375 C 30.28125 24.003906 30.753906 23.625 31.597656 22.433594 L 32.035156 21.820312 L 31.777344 12.191406 C 31.632812 6.898438 31.488281 2.5 31.453125 2.417969 C 31.410156 2.3125 31.253906 2.449219 30.949219 2.84375 C 29.894531 4.21875 28.613281 5.164062 27.5 5.386719 C 25.777344 5.734375 24.082031 5.207031 20.515625 3.210938 C 18.121094 1.871094 16.722656 1.238281 15.722656 1.035156 C 13.65625 0.621094 11.683594 1.390625 10.164062 3.203125 C 9.589844 3.882812 9.574219 3.898438 9.484375 3.6875 C 9.425781 3.554688 8.878906 3.558594 8.53125 3.691406 C 8.453125 3.722656 9.414062 42.496094 9.496094 42.695312 C 9.515625 42.738281 9.660156 42.75 9.824219 42.722656 C 9.988281 42.699219 10.210938 42.675781 10.320312 42.671875 C 10.457031 42.664062 10.527344 42.558594 10.53125 42.351562 Z M 27.171875 24.894531 C 26.816406 24.90625 26.105469 24.824219 25.589844 24.710938 L 24.648438 24.5 L 24.632812 23.953125 C 24.625 23.648438 24.605469 22.804688 24.585938 22.070312 L 24.554688 20.738281 L 25.425781 20.957031 C 26.292969 21.171875 27.457031 21.203125 27.878906 21.027344 C 27.996094 20.976562 28.121094 20.992188 28.148438 21.0625 C 28.179688 21.132812 28.234375 21.96875 28.265625 22.921875 C 28.335938 24.871094 28.347656 24.847656 27.171875 24.894531 Z M 28.230469 20.941406 C 28.214844 20.910156 28.1875 20.082031 28.164062 19.097656 C 28.140625 18.117188 28.105469 17.277344 28.089844 17.234375 C 28.070312 17.191406 27.730469 17.191406 27.339844 17.242188 C 26.582031 17.332031 25.988281 17.28125 25.113281 17.050781 C 24.816406 16.972656 24.550781 16.917969 24.519531 16.933594 C 24.488281 16.945312 24.484375 17.730469 24.511719 18.679688 C 24.535156 19.628906 24.53125 20.472656 24.5 20.558594 C 24.4375 20.734375 23.585938 20.363281 21.9375 19.449219 C 21.367188 19.128906 20.890625 18.875 20.875 18.878906 C 20.863281 18.886719 20.875 19.679688 20.90625 20.644531 C 20.933594 21.609375 20.917969 22.417969 20.871094 22.4375 C 20.820312 22.457031 20.410156 22.261719 19.957031 22.003906 C 19.503906 21.742188 18.710938 21.347656 18.195312 21.125 L 17.257812 20.71875 L 17.214844 19.109375 C 17.1875 18.226562 17.160156 17.390625 17.152344 17.253906 C 17.140625 17.035156 17.210938 17.039062 17.851562 17.285156 C 18.246094 17.4375 19.066406 17.839844 19.679688 18.175781 C 20.289062 18.511719 20.804688 18.78125 20.824219 18.769531 C 20.847656 18.761719 20.835938 17.90625 20.800781 16.867188 C 20.769531 15.828125 20.761719 14.988281 20.785156 15 C 20.808594 15.011719 21.441406 15.351562 22.1875 15.753906 C 22.9375 16.160156 23.753906 16.566406 24.007812 16.660156 L 24.464844 16.828125 L 24.398438 15.046875 C 24.363281 14.066406 24.351562 13.203125 24.378906 13.125 C 24.40625 13.050781 24.71875 13.078125 25.082031 13.183594 C 25.804688 13.394531 26.976562 13.46875 27.574219 13.339844 C 27.789062 13.292969 27.976562 13.289062 27.996094 13.332031 C 28.011719 13.371094 28.046875 14.210938 28.066406 15.191406 C 28.089844 16.175781 28.121094 17.003906 28.132812 17.035156 C 28.183594 17.152344 29.246094 16.617188 29.78125 16.203125 C 30.089844 15.964844 30.617188 15.441406 30.949219 15.042969 C 31.285156 14.648438 31.566406 14.335938 31.574219 14.355469 C 31.582031 14.375 31.609375 15.238281 31.636719 16.273438 L 31.683594 18.152344 L 31.03125 18.921875 C 30.671875 19.347656 30.136719 19.882812 29.839844 20.113281 C 29.3125 20.523438 28.277344 21.054688 28.230469 20.941406 Z M 10.113281 21.414062 C 10.089844 20.492188 10.097656 19.648438 10.128906 19.539062 C 10.21875 19.234375 10.90625 18.457031 11.636719 17.835938 C 12.382812 17.203125 13.511719 16.652344 13.519531 16.921875 C 13.519531 17.011719 13.542969 17.859375 13.566406 18.808594 L 13.613281 20.53125 L 12.921875 20.824219 C 12.179688 21.144531 11.253906 21.878906 10.632812 22.648438 C 10.421875 22.910156 10.226562 23.117188 10.203125 23.109375 C 10.175781 23.097656 10.136719 22.335938 10.113281 21.414062 Z M 28.101562 13.136719 C 28.039062 13.070312 27.96875 12.226562 27.949219 11.257812 C 27.925781 10.292969 27.867188 9.472656 27.820312 9.441406 C 27.773438 9.40625 27.664062 9.40625 27.578125 9.445312 C 27.214844 9.597656 25.941406 9.558594 25.125 9.363281 C 24.253906 9.15625 24.242188 9.15625 24.253906 9.445312 C 24.300781 10.6875 24.34375 12.875 24.324219 12.9375 C 24.289062 13.035156 23.125 12.488281 21.796875 11.746094 C 21.226562 11.429688 20.734375 11.207031 20.699219 11.253906 C 20.667969 11.300781 20.667969 12.132812 20.703125 13.101562 C 20.734375 14.070312 20.71875 14.863281 20.667969 14.863281 C 20.613281 14.863281 19.957031 14.535156 19.207031 14.132812 C 18.457031 13.730469 17.664062 13.332031 17.441406 13.253906 L 17.042969 13.109375 L 17.054688 13.417969 L 17.117188 15.28125 C 17.148438 16.132812 17.160156 16.855469 17.148438 16.890625 C 17.136719 16.921875 16.804688 16.863281 16.414062 16.761719 C 15.660156 16.566406 14.4375 16.496094 14.117188 16.628906 C 13.582031 16.851562 13.535156 16.714844 13.484375 14.777344 C 13.460938 13.75 13.445312 12.894531 13.453125 12.875 C 13.460938 12.855469 13.738281 12.800781 14.074219 12.753906 C 14.832031 12.644531 15.589844 12.695312 16.34375 12.90625 C 16.664062 12.996094 16.953125 13.054688 16.992188 13.039062 C 17.027344 13.019531 17.035156 12.203125 17.003906 11.222656 C 16.972656 10.242188 16.957031 9.40625 16.96875 9.371094 C 17.007812 9.25 18.40625 9.851562 19.460938 10.441406 C 20.03125 10.757812 20.53125 11.003906 20.574219 10.984375 C 20.617188 10.964844 20.628906 10.15625 20.601562 9.1875 C 20.574219 8.21875 20.574219 7.394531 20.597656 7.359375 C 20.625 7.320312 21.199219 7.597656 21.875 7.972656 C 23.101562 8.652344 24.199219 9.140625 24.234375 9.019531 C 24.246094 8.984375 24.230469 8.164062 24.203125 7.199219 C 24.171875 6.234375 24.15625 5.421875 24.164062 5.394531 C 24.171875 5.367188 24.527344 5.429688 24.953125 5.535156 C 25.957031 5.78125 26.261719 5.800781 27.109375 5.6875 L 27.8125 5.597656 L 27.851562 7.351562 C 27.875 8.3125 27.921875 9.171875 27.960938 9.257812 C 28.011719 9.386719 28.160156 9.339844 28.722656 9.023438 C 29.507812 8.585938 30.175781 8.011719 30.851562 7.207031 C 31.101562 6.910156 31.320312 6.710938 31.34375 6.761719 C 31.480469 7.078125 31.472656 10.261719 31.335938 10.554688 C 30.886719 11.515625 28.429688 13.476562 28.101562 13.136719 Z M 9.910156 13.675781 L 9.867188 11.800781 L 10.398438 11.144531 C 11.273438 10.058594 13.097656 8.78125 13.25 9.144531 C 13.285156 9.222656 13.328125 10.078125 13.351562 11.042969 L 13.394531 12.796875 L 12.699219 13.179688 C 11.839844 13.652344 11.125 14.25 10.511719 15.003906 C 10.253906 15.320312 10.019531 15.574219 10 15.566406 C 9.976562 15.558594 9.9375 14.707031 9.910156 13.675781 Z M 15.101562 8.855469 C 14.835938 8.835938 14.394531 8.847656 14.117188 8.875 C 13.84375 8.90625 13.550781 8.9375 13.46875 8.945312 C 13.371094 8.957031 13.304688 8.355469 13.277344 7.164062 C 13.25 6.175781 13.257812 5.300781 13.285156 5.222656 C 13.410156 4.886719 15.03125 4.894531 16.398438 5.230469 L 16.835938 5.339844 L 16.792969 3.554688 C 16.769531 2.574219 16.796875 1.730469 16.851562 1.679688 C 16.945312 1.597656 19.589844 2.898438 20.183594 3.324219 C 20.433594 3.5 20.460938 3.65625 20.507812 5.289062 C 20.535156 6.261719 20.535156 7.085938 20.511719 7.125 C 20.484375 7.160156 19.890625 6.878906 19.191406 6.496094 C 17.902344 5.789062 16.910156 5.347656 16.875 5.464844 C 16.859375 5.519531 16.910156 7.882812 16.949219 8.945312 C 16.960938 9.238281 16.960938 9.238281 16.273438 9.0625 C 15.894531 8.964844 15.371094 8.871094 15.101562 8.855469 Z M 9.78125 7.761719 C 9.769531 7.730469 9.734375 6.960938 9.710938 6.046875 C 9.65625 4.164062 9.71875 3.96875 10.703125 2.957031 C 11.316406 2.320312 12.816406 1.269531 13 1.34375 C 13.046875 1.359375 13.109375 2.230469 13.144531 3.277344 L 13.203125 5.179688 L 12.535156 5.464844 C 11.839844 5.765625 10.519531 6.863281 10.160156 7.441406 C 9.976562 7.738281 9.824219 7.863281 9.78125 7.761719 Z M 9.78125 7.761719 " fill-opacity="1" fill-rule="nonzero"/></g></g></g></g></svg>